<svg width="15" height="13" viewBox="0 0 15 13" fill="none" xmlns="http://www.w3.org/2000/svg">
<path d="M13.7574 1.36517C12.1262 -0.187095 9.47106 -0.187095 7.83932 1.36482L7.50003 1.68709L7.16109 1.36497C5.52917 -0.187153 2.87443 -0.186978 1.24251 1.36497C0.44124 2.12709 0 3.13798 0 4.21113C0 5.28462 0.44124 6.29534 1.24263 7.05779L7.13771 12.6545C7.23911 12.751 7.36966 12.799 7.5 12.799C7.63034 12.799 7.76071 12.7508 7.86229 12.6543L13.7574 7.05779C14.5586 6.29551 15 5.28465 15 4.2113C15 3.13798 14.5586 2.12727 13.7574 1.36517ZM13.0321 6.29463L7.5 11.5469L1.96808 6.29481C1.37771 5.73342 1.05264 4.99341 1.05264 4.2113C1.05264 3.42919 1.37771 2.68918 1.96808 2.1278C2.58387 1.54183 3.39264 1.24904 4.20158 1.24904C5.0107 1.24904 5.81982 1.54218 6.43562 2.12815L7.13736 2.79465C7.34051 2.98781 7.65929 2.98781 7.86246 2.79465L8.56438 2.1278C9.79614 0.95604 11.8002 0.95604 13.0319 2.1278C13.6221 2.68921 13.9474 3.42919 13.9474 4.2113C13.9474 4.99341 13.6221 5.73325 13.0321 6.29463Z" fill="#696969"/>
</svg>
