<svg width="18" height="18" viewBox="0 0 18 18" fill="none" xmlns="http://www.w3.org/2000/svg">
<path d="M13.7812 17.9987H4.21875C1.89253 17.9987 0 16.1062 0 13.78V7.86421C0 6.55671 0.620684 5.30272 1.66029 4.50977L6.44154 0.863049C7.94795 -0.285893 10.0521 -0.285893 11.5585 0.863049L13.0781 2.0211V1.12373C13.1152 0.190826 14.4476 0.191529 14.4844 1.12373V3.44092C14.4844 3.70821 14.3328 3.95237 14.0933 4.07102C13.8537 4.18964 13.5676 4.16215 13.3551 4.00018L10.7059 1.9814C9.70137 1.21528 8.29856 1.21528 7.29432 1.98123L2.51307 5.62795C1.82004 6.15653 1.40625 6.99251 1.40625 7.86421V13.78C1.40625 15.3308 2.66794 16.5925 4.21875 16.5925H13.7812C15.3321 16.5925 16.5938 15.3308 16.5938 13.78V7.86421C16.5938 6.98182 16.1846 6.14299 15.4994 5.62029C15.1906 5.38478 15.1312 4.94356 15.3667 4.63482C15.6022 4.32605 16.0435 4.26667 16.3522 4.50218C17.384 5.28912 18 6.54595 18 7.86421V13.78C18 16.1062 16.1075 17.9987 13.7812 17.9987ZM7.59375 8.11983C7.10835 8.11983 6.71484 8.51333 6.71484 8.99873C6.76129 10.1649 8.42664 10.164 8.47266 8.99873C8.47266 8.5133 8.07915 8.11983 7.59375 8.11983ZM11.2852 8.9987C11.2387 10.1648 9.57336 10.164 9.52734 8.9987C9.57378 7.83257 11.2391 7.83348 11.2852 8.9987ZM8.47266 11.8112C8.42622 12.9773 6.76086 12.9765 6.71484 11.8112C6.76129 10.6451 8.42664 10.646 8.47266 11.8112ZM11.2852 11.8112C11.2387 12.9773 9.57336 12.9765 9.52734 11.8112C9.57378 10.6451 11.2391 10.646 11.2852 11.8112Z" fill="#0061DF"/>
</svg>
