<svg width="30" height="26" viewBox="0 0 30 26" fill="none" xmlns="http://www.w3.org/2000/svg">
<path d="M27.5147 2.73059C24.2523 -0.373945 18.9421 -0.373945 15.6786 2.72988L15.0001 3.37441L14.3222 2.73018C11.0583 -0.374063 5.74887 -0.373711 2.48502 2.73018C0.88248 4.25443 0 6.27621 0 8.4225C0 10.5695 0.882481 12.5909 2.48525 14.1158L14.2754 25.3092C14.4782 25.5022 14.7393 25.5983 15 25.5983C15.2607 25.5983 15.5214 25.5018 15.7246 25.3088L27.5147 14.1158C29.1172 12.5913 30 10.5696 30 8.42285C30 6.27621 29.1172 4.25479 27.5147 2.73059ZM26.0642 12.5895L15 23.0941L3.93615 12.5899C2.75543 11.4671 2.10527 9.98707 2.10527 8.42285C2.10527 6.85863 2.75543 5.37861 3.93615 4.25584C5.16773 3.08391 6.78527 2.49832 8.40316 2.49832C10.0214 2.49832 11.6396 3.08461 12.8712 4.25654L14.2747 5.58955C14.681 5.97586 15.3186 5.97586 15.7249 5.58955L17.1288 4.25584C19.5923 1.91232 23.6003 1.91232 26.0638 4.25584C27.2442 5.37867 27.8947 6.85863 27.8947 8.42285C27.8947 9.98707 27.2442 11.4667 26.0642 12.5895Z" fill="#0061DF"/>
</svg>
