<svg width="20" height="20" viewBox="0 0 20 20" fill="none" xmlns="http://www.w3.org/2000/svg">
<path d="M17.3188 0H2.67937C2.40445 0 2.18164 0.222811 2.18164 0.497727V19.5024C2.18164 19.6999 2.29849 19.8788 2.4795 19.9581C2.6607 20.0374 2.87146 20.0022 3.01669 19.8683L4.74844 18.2713C4.93644 18.0967 5.22653 18.0943 5.41726 18.2658L6.55231 19.279C7.12081 19.7874 7.98133 19.785 8.54691 19.2735L9.66544 18.2643C9.85481 18.0926 10.1433 18.0926 10.3325 18.2643L11.4512 19.2735C12.0168 19.7852 12.8773 19.7876 13.4456 19.279L14.5809 18.2658C14.7716 18.0943 15.0617 18.0967 15.2497 18.2713L16.9812 19.8683C17.1267 20.0022 17.3374 20.0374 17.5184 19.9581C17.6995 19.8788 17.8165 19.6999 17.8165 19.5024V0.497727C17.8165 0.222811 17.5935 0 17.3188 0ZM16.821 18.3661L15.9246 17.5394C15.3605 17.0161 14.4905 17.0089 13.9179 17.5229L12.7828 18.5361C12.5933 18.7056 12.3065 18.7048 12.1179 18.5343L10.9994 17.5251C10.4319 17.0106 9.56667 17.0106 8.99895 17.5251L7.88023 18.5345C7.69164 18.7048 7.40486 18.7056 7.21549 18.5363L6.08024 17.5231C5.50786 17.0089 4.63781 17.0161 4.07378 17.5394L3.17729 18.3663V0.995649H16.821V18.3663V18.3661Z" fill="#0061DF"/>
<path d="M6.67155 7.7537H13.0598C13.3347 7.7537 13.5575 7.53088 13.5575 7.25597C13.5575 6.98105 13.3347 6.75824 13.0598 6.75824H6.67155C6.39664 6.75824 6.17383 6.98105 6.17383 7.25597C6.17383 7.53088 6.39664 7.7537 6.67155 7.7537Z" fill="#0061DF"/>
<path d="M6.67155 11.2138H13.0598C13.3347 11.2138 13.5575 10.991 13.5575 10.7161C13.5575 10.4412 13.3347 10.2184 13.0598 10.2184H6.67155C6.39664 10.2184 6.17383 10.4412 6.17383 10.7161C6.17383 10.991 6.39664 11.2138 6.67155 11.2138Z" fill="#0061DF"/>
</svg>
