<svg width="30" height="24" viewBox="0 0 30 24" fill="none" xmlns="http://www.w3.org/2000/svg">
<path d="M22.9688 23.8359H7.03125C3.15422 23.8359 0 20.6817 0 16.8047V7.19531C0 3.31828 3.15422 0.164062 7.03125 0.164062H22.9688C26.8458 0.164062 30 3.31828 30 7.19531V16.8047C30 20.6817 26.8458 23.8359 22.9688 23.8359ZM7.03125 2.50781C4.44656 2.50781 2.34375 4.61063 2.34375 7.19531V16.8047C2.34375 19.3894 4.44656 21.4922 7.03125 21.4922H22.9688C25.5534 21.4922 27.6562 19.3894 27.6562 16.8047V7.19531C27.6562 4.61063 25.5534 2.50781 22.9688 2.50781H7.03125ZM19.2941 14.0746L25.0864 9.65004C25.6007 9.25717 25.6992 8.52176 25.3063 8.00742C24.9134 7.49309 24.178 7.39465 23.6637 7.78752L17.8721 12.2115C16.1998 13.4871 13.8643 13.488 12.1908 12.2147L6.57867 7.85215C6.06768 7.45488 5.33139 7.54717 4.93424 8.05816C4.53703 8.56916 4.62926 9.30539 5.14025 9.7026L10.7568 14.0685C10.7596 14.0708 10.7624 14.0729 10.7653 14.0751C12.0206 15.0325 13.5247 15.5112 15.0292 15.5112C16.5336 15.5112 18.0384 15.0322 19.2941 14.0746Z" fill="#0061DF"/>
</svg>
