<svg width="18" height="18" viewBox="0 0 18 18" fill="none" xmlns="http://www.w3.org/2000/svg">
<path d="M8.99991 3.86938C7.1573 3.86938 5.6582 5.36848 5.6582 7.21109C5.6582 9.0537 7.1573 10.5528 8.99991 10.5528C10.8425 10.5528 12.3416 9.0537 12.3416 7.21109C12.3416 5.36848 10.8426 3.86938 8.99991 3.86938ZM8.99991 9.14577C7.93313 9.14577 7.06523 8.27787 7.06523 7.21109C7.06523 6.14431 7.93313 5.27641 8.99991 5.27641C10.0667 5.27641 10.9346 6.14431 10.9346 7.21109C10.9346 8.27787 10.0667 9.14577 8.99991 9.14577Z" fill="white"/>
<path d="M9.00014 0C5.02393 0 1.78906 3.2349 1.78906 7.21107V7.41041C1.78906 9.42135 2.94198 11.7647 5.21588 14.3753C6.86429 16.2679 8.48967 17.5875 8.55801 17.6427L9.00014 18L9.44226 17.6428C9.51064 17.5875 11.136 16.2679 12.7844 14.3754C15.0583 11.7647 16.2112 9.42138 16.2112 7.41045V7.21111C16.2112 3.2349 12.9763 0 9.00014 0ZM14.8042 7.41045C14.8042 10.8088 10.4254 14.9226 9.00014 16.1715C7.57444 14.9222 3.19609 10.8086 3.19609 7.41045V7.21111C3.19609 4.01077 5.79979 1.40706 9.00014 1.40706C12.2005 1.40706 14.8042 4.01077 14.8042 7.21111V7.41045Z" fill="white"/>
</svg>
