<svg width="18" height="18" viewBox="0 0 18 18" fill="none" xmlns="http://www.w3.org/2000/svg">
<path d="M5.48438 9C5.48438 9.38834 5.79916 9.70312 6.1875 9.70312H8.29688V11.8125C8.29688 12.2008 8.61166 12.5156 9 12.5156C9.38834 12.5156 9.70312 12.2008 9.70312 11.8125V9.70312H11.8125C12.2008 9.70312 12.5156 9.38834 12.5156 9C12.5156 8.61166 12.2008 8.29688 11.8125 8.29688H9.70312V6.1875C9.70312 5.79916 9.38834 5.48438 9 5.48438C8.61166 5.48438 8.29688 5.79916 8.29688 6.1875V8.29688H6.1875C5.79916 8.29688 5.48438 8.61166 5.48438 9Z" fill="#0061DF"/>
<path d="M5.63928 2.17267L6.54874 1.79593C6.90747 1.64729 7.07787 1.236 6.92923 0.877229C6.78059 0.51846 6.36933 0.347987 6.01053 0.496733L5.10107 0.873468C4.74234 1.02211 4.57194 1.4334 4.72058 1.79217C4.86872 2.14974 5.27935 2.32166 5.63928 2.17267Z" fill="#0061DF"/>
<path d="M9 0C8.61166 0 8.29688 0.314789 8.29688 0.703125C8.29688 1.09146 8.61166 1.40625 9 1.40625C13.1969 1.40625 16.5938 4.80263 16.5938 9C16.5938 13.1969 13.1974 16.5938 9 16.5938C4.80312 16.5938 1.40625 13.1974 1.40625 9C1.40625 8.61166 1.09146 8.29688 0.703125 8.29688C0.314789 8.29688 0 8.61166 0 9C0 13.974 4.02528 18 9 18C13.974 18 18 13.9747 18 9C18 4.02599 13.9747 0 9 0Z" fill="#0061DF"/>
<path d="M3.28238 3.97842L3.97843 3.28236C4.25304 3.00776 4.25304 2.56254 3.97843 2.28797C3.70383 2.0134 3.25861 2.01337 2.98404 2.28797L2.28798 2.98403C2.01338 3.25863 2.01338 3.70385 2.28798 3.97842C2.56252 4.25296 3.00777 4.25303 3.28238 3.97842Z" fill="#0061DF"/>
<path d="M0.87723 6.92927C1.23677 7.0782 1.64764 6.9067 1.79593 6.54878L2.17267 5.63928C2.32131 5.28051 2.15091 4.86922 1.79217 4.72058C1.43333 4.57197 1.02211 4.74234 0.873468 5.10107L0.496734 6.01053C0.348093 6.36934 0.518495 6.78063 0.87723 6.92927Z" fill="#0061DF"/>
</svg>
