<svg width="30" height="30" viewBox="0 0 30 30" fill="none" xmlns="http://www.w3.org/2000/svg">
<path d="M22.9688 29.9969H7.03125C3.15422 29.9969 0 26.8427 0 22.9656V13.106C0 10.9268 1.03447 8.83685 2.76715 7.51527L10.7359 1.4374C13.2466 -0.477505 16.7534 -0.477505 19.2641 1.4374L21.7969 3.36748V1.87187C21.8587 0.317026 24.0793 0.318198 24.1406 1.87187V5.73384C24.1406 6.17933 23.888 6.58627 23.4888 6.78402C23.0895 6.98171 22.6127 6.93589 22.2584 6.66595L17.8431 3.30132C16.1689 2.02445 13.8309 2.02445 12.1572 3.30103L4.18846 9.3789C3.0334 10.2599 2.34375 11.6532 2.34375 13.106V22.9656C2.34375 25.5503 4.44656 27.6531 7.03125 27.6531H22.9688C25.5534 27.6531 27.6562 25.5503 27.6562 22.9656V13.106C27.6562 11.6353 26.9744 10.2373 25.8323 9.36613C25.3177 8.97361 25.2187 8.23826 25.6112 7.72369C26.0037 7.20906 26.7391 7.11009 27.2537 7.50261C28.9733 8.81418 30 10.9089 30 13.106V22.9656C30 26.8427 26.8458 29.9969 22.9688 29.9969ZM12.6562 13.532C11.8472 13.532 11.1914 14.1879 11.1914 14.9969C11.2688 16.9404 14.0444 16.939 14.1211 14.9969C14.1211 14.1878 13.4653 13.532 12.6562 13.532ZM18.8086 14.9968C18.7312 16.9404 15.9556 16.9389 15.8789 14.9968C15.9563 13.0533 18.7319 13.0548 18.8086 14.9968ZM14.1211 19.6843C14.0437 21.6279 11.2681 21.6264 11.1914 19.6843C11.2688 17.7408 14.0444 17.7423 14.1211 19.6843ZM18.8086 19.6843C18.7312 21.6279 15.9556 21.6264 15.8789 19.6843C15.9563 17.7408 18.7319 17.7423 18.8086 19.6843Z" fill="#0061DF"/>
</svg>
