<svg width="30" height="30" viewBox="0 0 30 30" fill="none" xmlns="http://www.w3.org/2000/svg">
<path d="M29.8093 14.4165C29.5413 14.0499 23.1556 5.43954 14.9999 5.43954C6.84412 5.43954 0.458087 14.0499 0.190371 14.4161C-0.0634572 14.7639 -0.0634572 15.2357 0.190371 15.5835C0.458087 15.9501 6.84412 24.5604 14.9999 24.5604C23.1556 24.5604 29.5413 15.9501 29.8093 15.5838C30.0635 15.236 30.0635 14.7639 29.8093 14.4165ZM14.9999 22.5824C8.99228 22.5824 3.78909 16.8676 2.24883 14.9993C3.7871 13.1294 8.97939 7.41756 14.9999 7.41756C21.0071 7.41756 26.21 13.1314 27.7509 15.0007C26.2126 16.8705 21.0203 22.5824 14.9999 22.5824Z" fill="#0061DF"/>
<path d="M14.9999 9.06598C11.7279 9.06598 9.0658 11.7281 9.0658 15.0001C9.0658 18.2721 11.7279 20.9342 14.9999 20.9342C18.2719 20.9342 20.934 18.2721 20.934 15.0001C20.934 11.7281 18.2719 9.06598 14.9999 9.06598ZM14.9999 18.9561C12.8184 18.9561 11.0439 17.1815 11.0439 15.0001C11.0439 12.8187 12.8185 11.044 14.9999 11.044C17.1813 11.044 18.9559 12.8187 18.9559 15.0001C18.9559 17.1815 17.1813 18.9561 14.9999 18.9561Z" fill="#0061DF"/>
</svg>
